<svg xmlns="http://www.w3.org/2000/svg" viewBox="0 0 256 256" xml:space="preserve"><path fill="#72C2E9" d="M251.12 60.75v141.13c0 5.52-4.48 10-10 10h-85.21v-5.4c0-2.33-1.89-4.2-4.2-4.21H105.65c-2.22 0-4.2 1.84-4.2 4.2v5.41H14.88c-5.52 0-10-4.48-10-10V60.75c0-5.52 4.48-10.009 10-10.009h226.24c5.52 0 10 4.489 10 10.009z"/><path fill="#4BA5C8" d="M162.91 206.48v5.4h-7v-5.4c0-2.33-1.89-4.2-4.2-4.21H105.65c-2.22 0-4.2 1.84-4.2 4.2v5.41h-7v-5.41c0-.7.06-1.39.19-2.05l-1.62-.76c-6.92-3.23-9.94-11.49-6.72-18.41 2.28-4.87 7.22-8.02 12.59-8.02.23 0 .46.01.69.02v-11.79c0-10.54 8.58-19.12 19.12-19.12h19.95c10.55 0 19.13 8.58 19.13 19.12v31.62c3.09 2 5.13 5.47 5.13 9.4z"/><path fill="#FC5D3D" d="M171.825 22.069v28.672h-14.123V25.328H98.298v25.413H84.176V22.069c0-6 4.864-10.864 10.864-10.864h65.921c6 0 10.864 4.864 10.864 10.864z"/><path fill="#7D7B79" d="M55.57 36.705H35.32a5 5 0 0 0-5 5v9.036h30.25v-9.036a5 5 0 0 0-5-5zM220.68 36.705h-20.25a5 5 0 0 0-5 5v9.036h30.25v-9.036a5 5 0 0 0-5-5z"/><path fill="#EFC020" d="M163.15 134.56a9.981 9.981 0 0 0-2.87 8.85l3.09 18.05c.82 4.8-1.8 8.93-5.59 10.74-2.1 1-4.56 1.29-7 .58v-7.32c0-6.69-5.44-12.12-12.13-12.12H118.7c-6.69 0-12.12 5.43-12.12 12.12v6.81a9.824 9.824 0 0 1-7 .46c-4.5-1.39-7.87-5.91-6.95-11.27l3.09-18.05c.56-3.24-.51-6.55-2.87-8.85l-13.11-12.78c-5.94-5.78-2.66-15.86 5.54-17.06l18.12-2.63a9.997 9.997 0 0 0 7.53-5.47l8.1-16.42c3.67-7.43 14.27-7.43 17.94 0l8.1 16.42c1.46 2.95 4.27 5 7.53 5.47l18.12 2.63c8.2 1.2 11.48 11.28 5.54 17.06l-13.11 12.78z"/><path fill="#E8A61E" d="M157.78 165.46v6.74c-2.1 1-4.56 1.29-7 .58v-7.32c0-6.69-5.44-12.12-12.13-12.12H118.7c-6.69 0-12.12 5.43-12.12 12.12v6.81a9.824 9.824 0 0 1-7 .46v-7.27c0-10.54 8.58-19.12 19.12-19.12h19.95c10.55 0 19.13 8.58 19.13 19.12z"/><path fill="#FC5D3D" d="M160.866 244.795v-22.456a2.593 2.593 0 0 0-2.595-2.592H99.088a2.592 2.592 0 0 0-2.595 2.592v22.456h64.373z"/><path fill="#FFB69F" d="M150.78 165.46v36.81h-44.2l-10.6-4.95c-3.43-1.6-4.93-5.68-3.33-9.12 1.61-3.45 5.73-4.92 9.13-3.32l4.8 2.24v-21.66c0-6.69 5.43-12.12 12.12-12.12h19.95c6.69 0 12.13 5.43 12.13 12.12z"/><path fill="#EFEFEF" d="M155.91 206.48v13.267h-54.46V206.47c0-2.36 1.98-4.2 4.2-4.2H151.71c2.31.01 4.2 1.88 4.2 4.21z"/><path fill="#F0C020" d="M74.433 165.567c-3.683-1.217-7.487-2.281-9.623-11.48-1.967 8.473-5.118 9.992-9.623 11.48 7.347 2.428 8.455 6.447 9.623 11.48 2.013-8.676 5.343-10.066 9.623-11.48z"/><path d="M62.401 177.606c-1.067-4.599-1.771-7.637-7.989-9.691-2.259-.746-2.254-3.952 0-4.697 3.743-1.237 6.216-2.054 7.989-9.692.589-2.538 4.228-2.545 4.818 0 1.813 7.811 4.522 8.549 7.989 9.691 2.259.746 2.254 3.952 0 4.697-3.609 1.192-6.218 2.054-7.989 9.691-.592 2.551-4.226 2.552-4.818.001zm-1.414-11.983c1.78 1.222 2.996 2.618 3.872 4.094 1.061-1.875 2.29-3.166 3.659-4.128-1.312-.939-2.583-2.269-3.699-4.279-1.103 1.985-2.392 3.326-3.832 4.313z"/><path fill="#F0C020" d="M200.813 80.516c-3.683-1.217-7.487-2.281-9.623-11.481-1.967 8.473-5.118 9.992-9.623 11.481 7.347 2.428 8.455 6.447 9.623 11.48 2.013-8.676 5.343-10.066 9.623-11.48z"/><path d="M188.78 92.555c-1.067-4.599-1.771-7.637-7.989-9.691-2.259-.746-2.254-3.952 0-4.697 3.743-1.237 6.216-2.054 7.989-9.692.589-2.538 4.228-2.545 4.818 0 1.813 7.811 4.522 8.549 7.989 9.691 2.259.746 2.254 3.952 0 4.697-3.609 1.192-6.218 2.054-7.989 9.691-.591 2.551-4.225 2.552-4.818.001zm-1.413-11.983c1.78 1.222 2.996 2.618 3.872 4.094 1.061-1.875 2.29-3.166 3.659-4.128-1.312-.939-2.583-2.269-3.699-4.279-1.103 1.985-2.392 3.325-3.832 4.313z"/><path fill="#C5E5FE" d="M79.333 203.39h-46a2.5 2.5 0 1 1 0-5h46a2.5 2.5 0 1 1 0 5zm-56 0H18.33a2.5 2.5 0 1 1 0-5h5.003a2.5 2.5 0 1 1 0 5zM240.12 203.39h-71.787a2.5 2.5 0 1 1 0-5h69.287V61.75a2.5 2.5 0 1 1 5 0v139.14a2.5 2.5 0 0 1-2.5 2.5z"/><path fill="#F8E5B0" d="M147.636 142.037c-.01-1.309.059-2.533.292-3.957a2.5 2.5 0 0 1 4.934.807 17.664 17.664 0 0 0-.228 3.076 2.5 2.5 0 1 1-4.998.074zm5.186-10.649a2.501 2.501 0 0 1-.431-3.51c1.229-1.574 1.149-1.404 11.516-11.517l-13.092-1.9a22.506 22.506 0 0 1-16.954-12.308c-8.521-17.264-8.363-16.577-8.363-17.519 0-2.646 3.58-3.47 4.746-1.106l8.1 16.409a17.507 17.507 0 0 0 13.188 9.575l18.106 2.629c2.046.297 2.868 2.818 1.387 4.264-14.345 13.991-13.708 13.29-14.692 14.551a2.503 2.503 0 0 1-3.511.432z"/><path fill="#FFCBC2" d="M146.708 234.77h-8.69a2.5 2.5 0 1 1 0-5h8.69a2.5 2.5 0 1 1 0 5zm-18.69 0h-18a2.5 2.5 0 1 1 0-5h18a2.5 2.5 0 1 1 0 5z"/><path fill="#C5E5FE" d="M79.333 203.39h-46a2.5 2.5 0 1 1 0-5h46a2.5 2.5 0 1 1 0 5zm-56 0H18.33a2.5 2.5 0 1 1 0-5h5.003a2.5 2.5 0 1 1 0 5zM240.12 203.39h-71.787a2.5 2.5 0 1 1 0-5h69.287V61.75a2.5 2.5 0 1 1 5 0v139.14a2.5 2.5 0 0 1-2.5 2.5z"/><path fill="#F8E5B0" d="M147.636 142.037c-.01-1.309.059-2.533.292-3.957a2.5 2.5 0 0 1 4.934.807 17.664 17.664 0 0 0-.228 3.076 2.5 2.5 0 1 1-4.998.074zm5.186-10.649a2.501 2.501 0 0 1-.431-3.51c1.229-1.574 1.149-1.404 11.516-11.517l-13.092-1.9a22.506 22.506 0 0 1-16.954-12.308c-8.521-17.264-8.363-16.577-8.363-17.519 0-2.646 3.58-3.47 4.746-1.106l8.1 16.409a17.507 17.507 0 0 0 13.188 9.575l18.106 2.629c2.046.297 2.868 2.818 1.387 4.264-14.345 13.991-13.708 13.29-14.692 14.551a2.503 2.503 0 0 1-3.511.432z"/><path fill="#FFCBC2" d="M146.708 234.77h-8.69a2.5 2.5 0 1 1 0-5h8.69a2.5 2.5 0 1 1 0 5zm-18.69 0h-18a2.5 2.5 0 1 1 0-5h18a2.5 2.5 0 1 1 0 5z"/><circle cx="229.06" cy="211.88" r="2.5"/><path d="M253.62 201.88V60.75c0-6.9-5.61-12.51-12.5-12.51h-12.94v-6.53c0-4.141-3.36-7.5-7.5-7.51h-20.25c-4.14.01-7.5 3.369-7.5 7.51v6.53h-18.6V22.069c-.01-7.369-6-13.359-13.37-13.369h-8.81c-1.38 0-2.5 1.13-2.5 2.5a2.51 2.51 0 0 0 2.5 2.51c.01 0 .01-.01.01-.01h8.8c4.61.01 8.36 3.76 8.36 8.369V48.24h-9.12V25.33a2.5 2.5 0 0 0-2.5-2.5H98.3a2.5 2.5 0 0 0-2.5 2.5v22.91h-9.13l.01-26.171c0-4.609 3.76-8.359 8.36-8.369h37.11a2.5 2.5 0 0 0 2.5-2.5c0-1.37-1.12-2.49-2.5-2.49L95.04 8.7c-7.37.01-13.36 6-13.37 13.369V48.24h-18.6v-6.53c0-4.141-3.36-7.5-7.5-7.51H35.32c-4.14.01-7.5 3.369-7.5 7.51v6.53H14.88c-6.89 0-12.5 5.609-12.5 12.51v141.13c0 6.89 5.61 12.5 12.5 12.5h84.07v2.881c-2.744.075-4.957 2.318-4.957 5.078v22.456a2.5 2.5 0 1 0 5 0v-22.456c0-.052.042-.092.095-.092h59.184c.053 0 .095.04.095.092v22.456a2.5 2.5 0 1 0 5 0v-22.456c0-2.76-2.213-5.003-4.957-5.078v-2.881h60.65a2.5 2.5 0 0 0 0-5h-60.65v-2.9c0-3.143-2.192-5.791-5.129-6.51v-24.307c7.8.143 13.942-6.934 12.549-14.622l-3.09-18.05c-.424-2.617.493-5.017 2.15-6.641L178 123.57c7.394-7.153 3.384-19.815-6.92-21.319l-18.12-2.63a7.51 7.51 0 0 1-5.65-4.11l-8.1-16.42c-4.562-9.274-17.853-9.286-22.42 0l-7.31 14.83a2.493 2.493 0 0 0 1.13 3.35c1.22.601 2.75.07 3.35-1.14l7.31-14.82c2.773-5.589 10.685-5.592 13.46 0l8.1 16.42c1.83 3.69 5.35 6.25 9.41 6.83l18.12 2.63c6.224.912 8.571 8.478 4.16 12.801L161.4 132.77c-3.045 2.968-4.286 7.264-3.58 11.07l3.09 18.04c.8 5-3.137 8.918-7.629 8.777v-5.197c0-8.062-6.563-14.62-14.63-14.62h-19.95c-8.062 0-14.62 6.559-14.62 14.62v5.02c-4.969 1.121-9.877-3.132-8.99-8.59l3.09-18.06c.689-3.904-.585-8.143-3.59-11.061l-13.1-12.779c-4.418-4.3-2.096-11.886 4.15-12.801l9.67-1.399a2.497 2.497 0 0 0 2.11-2.83c-.19-1.34-1.48-2.311-2.83-2.12l-9.67 1.41c-10.286 1.502-14.334 14.147-6.92 21.319l13.11 12.78a7.514 7.514 0 0 1 2.15 6.63l-3.1 18.061c-1.432 8.497 5.799 15.585 13.92 14.513v7.641l-1.236-.576c-4.667-2.195-10.266-.175-12.461 4.527-2.175 4.677-.139 10.258 4.539 12.44l5.582 2.606a6.69 6.69 0 0 0-1.555 4.278v2.91H14.88c-4.13-.01-7.49-3.37-7.5-7.5V60.75c.01-4.13 3.37-7.5 7.5-7.51h226.24c4.13.01 7.49 3.38 7.5 7.51v141.13c-.01 4.13-3.37 7.49-7.5 7.5h-2.06a2.5 2.5 0 0 0 0 5h2.06c6.89 0 12.5-5.61 12.5-12.5zm-100.21 15.367h-49.46V206.47c0-.89.81-1.7 1.7-1.7h46.06c.94 0 1.7.771 1.7 1.71v10.767zm-58.494-27.99c1.018-2.18 3.628-3.134 5.808-2.111l4.8 2.24c1.646.772 3.557-.433 3.557-2.266v-21.66c0-4.979 3.85-9.62 10.031-9.62v21.963a2.5 2.5 0 1 0 5 0V155.84h9.141v21.963a2.5 2.5 0 1 0 5 0V155.84c6.133 0 10.028 4.611 10.028 9.62v34.31h-41.146l-10.098-4.715c-2.183-1.019-3.134-3.62-2.121-5.798zM32.82 48.24v-6.53c0-1.38 1.12-2.5 2.5-2.51h20.25c1.38.01 2.5 1.13 2.5 2.51v6.53H32.82zm67.98-20.41h54.4v20.41h-54.4V27.83zm97.13 20.41v-6.53c0-1.38 1.12-2.5 2.5-2.51h20.25c1.38.01 2.5 1.13 2.5 2.51v6.53h-25.25z"/><circle cx="142.15" cy="11.2" r="2.5"/><path d="M104.11 99.38a2.494 2.494 0 0 0-1.68 3.11c.373 1.264 1.745 2.097 3.11 1.68a2.505 2.505 0 0 0 1.68-3.11c-.38-1.28-1.82-2.07-3.11-1.68z"/></svg>